<svg width="244" height="34" viewBox="0 0 244 34" fill="none" xmlns="http://www.w3.org/2000/svg">
<path d="M10.116 0.439999C5.436 0.439999 2.016 3.32 2.016 7.172C2.016 16.46 16.128 12.572 16.128 19.088C16.128 21.824 13.716 23.732 10.332 23.732C7.128 23.732 4.68 22.364 2.7 20.6L0.972 22.652C3.204 24.74 6.552 26.36 10.332 26.36C15.552 26.36 18.936 23.084 18.936 19.052C18.936 10.016 4.752 13.796 4.752 6.992C4.752 4.688 6.948 3.068 9.936 3.068C12.492 3.068 14.976 4.112 16.416 5.768L18.072 3.68C16.524 1.808 13.284 0.439999 10.116 0.439999ZM31.0669 23.588C30.7429 23.696 30.2749 23.768 29.9149 23.768C27.7909 23.768 26.1349 22.328 26.1349 19.772V10.952H31.0669V8.504H26.1349V3.68H23.5429V8.504H20.0509V10.952H23.5429V19.88C23.5429 23.912 26.0629 26.18 29.5909 26.18C30.1669 26.18 30.7789 26.072 31.2469 25.892L31.0669 23.588ZM49.9388 16.46C49.9388 11.78 46.3028 8.144 41.5868 8.144C36.6188 8.144 32.6948 12.104 32.6948 17.144C32.6948 22.436 36.6908 26.36 41.6228 26.36C45.1868 26.36 48.1388 24.848 49.4708 22.436L47.3828 21.104C46.3748 22.904 44.2148 23.984 41.6948 23.984C38.0948 23.984 35.4668 21.428 35.2508 17.54H49.8668C49.9028 17.18 49.9388 16.784 49.9388 16.46ZM35.3948 15.488C36.0068 12.428 38.3828 10.34 41.4788 10.34C44.6108 10.34 47.0228 12.5 47.2388 15.488H35.3948ZM55.2504 0.872C54.2064 0.872 53.3784 1.736 53.3784 2.744C53.3784 3.788 54.2064 4.652 55.2504 4.652C56.2584 4.652 57.1584 3.788 57.1584 2.744C57.1584 1.736 56.2584 0.872 55.2504 0.872ZM53.9184 8.504V26H56.5464V8.504H53.9184ZM70.3305 8.144C67.7745 8.144 65.3625 9.332 64.2105 11.24V8.504H61.5825V26H64.2105V13.796C65.2905 11.888 67.4865 10.7 69.7905 10.7C72.8505 10.7 74.9025 12.896 74.9025 16.28V26H77.5305V15.92C77.5305 11.204 74.6865 8.144 70.3305 8.144ZM98.9184 0.799998H89.3064V26H94.6344V17.036H98.9184C103.85 17.036 107.45 13.58 107.45 8.864C107.45 4.184 103.85 0.799998 98.9184 0.799998ZM98.9184 11.924H94.6344V5.912H98.9184C100.754 5.912 102.086 7.172 102.086 8.864C102.086 10.628 100.754 11.924 98.9184 11.924ZM119.229 7.964C117.753 7.964 115.845 8.9 114.981 10.412V8.324H109.905V26H114.981V15.308C115.845 13.58 117.681 12.644 118.833 12.644C119.553 12.644 120.417 12.788 121.101 13.04L121.389 8.288C120.849 8.072 120.129 7.964 119.229 7.964ZM130.951 7.964C125.731 7.964 121.771 11.924 121.771 17.18C121.771 22.436 125.731 26.36 130.951 26.36C136.135 26.36 140.131 22.436 140.131 17.18C140.131 11.924 136.135 7.964 130.951 7.964ZM130.951 12.824C133.327 12.824 135.163 14.66 135.163 17.18C135.163 19.628 133.327 21.5 130.951 21.5C128.539 21.5 126.739 19.628 126.739 17.18C126.739 14.66 128.539 12.824 130.951 12.824ZM155.52 8.288V10.34C154.656 8.936 152.496 7.928 150.3 7.928C145.692 7.928 142.056 11.924 142.056 16.856C142.056 21.824 145.692 25.82 150.3 25.82C152.532 25.82 154.656 24.812 155.52 23.444V25.136C155.52 27.296 153.54 28.736 151.416 28.736C149.4 28.736 147.42 28.16 145.872 26.936L143.46 30.464C145.152 32.228 148.572 33.272 151.56 33.272C156.636 33.272 160.596 30.212 160.596 25.244V8.288H155.52ZM151.416 21.14C148.932 21.14 147.024 19.304 147.024 16.856C147.024 14.444 148.932 12.608 151.416 12.608C153.18 12.608 154.764 13.544 155.52 14.804V18.98C154.764 20.204 153.18 21.14 151.416 21.14ZM173.476 7.964C172 7.964 170.092 8.9 169.228 10.412V8.324H164.152V26H169.228V15.308C170.092 13.58 171.928 12.644 173.08 12.644C173.8 12.644 174.664 12.788 175.348 13.04L175.636 8.288C175.096 8.072 174.376 7.964 173.476 7.964ZM189.481 8.324V10.412C188.617 8.972 186.457 7.964 184.261 7.964C179.653 7.964 176.017 12.032 176.017 17.144C176.017 22.256 179.653 26.36 184.261 26.36C186.493 26.36 188.617 25.352 189.481 23.912V26H194.557V8.324H189.481ZM185.377 21.536C182.893 21.536 180.985 19.664 180.985 17.144C180.985 14.624 182.893 12.752 185.377 12.752C187.141 12.752 188.725 13.724 189.481 15.02V19.34C188.725 20.6 187.141 21.536 185.377 21.536ZM218.561 7.964C216.221 7.964 214.241 9.188 213.161 10.448C212.081 8.684 210.461 7.964 208.229 7.964C205.709 7.964 204.017 9.188 203.189 10.34V8.324H198.113V26H203.189V14.624C203.729 13.472 204.953 12.644 206.429 12.644C208.121 12.644 209.381 13.94 209.381 16.064V26H214.457V14.516C215.069 13.436 216.365 12.644 217.625 12.644C219.497 12.644 220.685 13.94 220.685 16.064V26H225.797V15.02C225.797 10.772 222.773 7.964 218.561 7.964ZM236.35 26.36C240.454 26.36 243.334 23.984 243.334 20.708C243.226 14.372 233.65 15.776 233.614 13.22C233.614 12.428 234.478 11.816 235.774 11.816C237.682 11.816 239.914 12.608 241.282 13.652L242.722 9.98C240.958 8.576 238.474 7.964 235.99 7.964C231.814 7.964 228.862 10.52 228.898 13.832C228.97 20.348 238.474 18.332 238.51 21.032C238.51 21.86 237.502 22.472 235.918 22.472C233.758 22.472 231.598 21.824 229.942 20.6L228.43 24.128C230.554 25.64 233.326 26.36 236.35 26.36Z" fill="#1770F3"/>
</svg>
